# xmcd
#
# Track frame offsets: 
#        150
#        16085
#        29854
#        45937
#        62618
#        74538
#        86570
#        103176
#        116512
#        131972
#
# Disc length: 1926 seconds
#
# Revision: 1
# Processed by: cddbd v1.5.2PL0 Copyright (c) Steve Scherf et al.
# Submitted via: ExactAudioCopy v0.95b4
#
DISCID=8907840a
DTITLE=แอนนา อริสา - ฮักอ้ายอีหลีเพราะ...EMS
DYEAR=2006
DGENRE=Country
TTITLE0=ฮักอายอีหลีเพราะ..EMS
TTITLE1=อย่ามองน้องอาย
TTITLE2=ซอยข่อยแน
TTITLE3=โทรหาเฮ็ดหยัง
TTITLE4=เมาแล้วม่วน
TTITLE5=ฮู้ไว้บ้างเด้อ
TTITLE6=คึดฮอดหล้าย  หลาย
TTITLE7=ผู้ชายวัยทอง
TTITLE8=แฟนเปลี่ยนฟอร์ม
TTITLE9=แอบรักพี่เขย
EXTD=
EXTT0=
EXTT1=
EXTT2=
EXTT3=
EXTT4=
EXTT5=
EXTT6=
EXTT7=
EXTT8=
EXTT9=
PLAYORDER=
